{"title":"Kyaa Super Kool Hain Hum [2012]--720p--DVDRip-By-K@rtik [EXD Exc","uid":7637419,"size":1496344110,"categoryP":"video","categoryS":"hd___movies","magnet":"?xt=urn:btih:6b6c8e075bce4d4092a00fa419845d29eb47860f&amp;dn=Kyaa+Super+Kool+Hain+Hum+%5B2012%5D--720p--DVDRip-By-K%40rtik+%5BEXD+Exc&amp;tr=udp%3A%2F%2Ftracker.openbittorrent.com%3A80&amp;tr=udp%3A%2F%2Fopen.demonii.com%3A1337&amp;tr=udp%3A%2F%2Ftracker.coppersurfer.tk%3A6969&amp;tr=udp%3A%2F%2Fexodus.desync.com%3A6969","seeders":0,"leechers":1,"uploader":"TeamExD","files":4,"time":1347684807,"description":" &lt;a href=&quot;http://img713.imageshack.us/img713/7002/teamexd.png&quot; rel=&quot;nofollow&quot; target=&quot;_NEW&quot;&gt;http://img713.imageshack.us/img713/7002/teamexd.png&lt;/a&gt; &lt;a href=&quot;\nhttp://imageshack.us/a/img706/1875/kyasuerkoolhainham001.jpg&quot; rel=&quot;nofollow&quot; target=&quot;_NEW&quot;&gt;\nhttp://imageshack.us/a/img706/1875/kyasuerkoolhainham001.jpg&lt;/a&gt;\n\nFormat                                   : Matroska\nFormat version                           : Version 2\nFile size                                : 1.37 GiB\nDuration                                 : 2h 16mn\nOverall bit rate                         : 1 443 Kbps\nMovie name                               : Kyaa Super Kool Hain Hum [2012]--720p--DVDRip-By-K@rtik [EXD Exclusive]\nFormat                                   : AVC\nFormat/Info                              : Advanced Video Codec\nFormat profile                           : &lt;a class=&quot;__cf_email__&quot; href=&quot;/cdn-cgi/l/email-protection&quot; data-cfemail=&quot;b0f8d9d7d8f0fc839e81&quot;&gt;[email&amp;#160;protected]&lt;/a&gt;&lt;script cf-hash='f9e31' type=&quot;text/javascript&quot;&gt;\n/* &lt;![CDATA[ */!function(){try{var t=&quot;currentScript&quot;in document?document.currentScript:function(){for(var t=document.getElementsByTagName(&quot;script&quot;),e=t.length;e--;)if(t[e].getAttribute(&quot;cf-hash&quot;))return t[e]}();if(t&amp;&amp;t.previousSibling){var e,r,n,i,c=t.previousSibling,a=c.getAttribute(&quot;data-cfemail&quot;);if(a){for(e=&quot;&quot;,r=parseInt(a.substr(0,2),16),n=2;a.length-n;n+=2)i=parseInt(a.substr(n,2),16)^r,e+=String.fromCharCode(i);e=document.createTextNode(e),c.parentNode.replaceChild(e,c)}}}catch(u){}}();/* ]]&gt; */&lt;/script&gt;\nFormat settings, ReFrames                : 4 frames\nMuxing mode                              : Header stripping\nCodec ID                                 : V_MPEG4/ISO/AVC\nDuration                                 : 2h 16mn\nBit rate                                 : 967 Kbps\nNominal bit rate                         : 913 Kbps\nWidth                                    : 1 280 pixels\nHeight                                   : 544 pixels\nDisplay aspect ratio                     : 2.35:1\nStream size                              : 942 MiB (67%)\nTitle                                    : K@rtik\nCodec ID                                 : A_AC3\nDuration                                 : 2h 16mn\nBit rate                                 : 448 Kbps\nChannel(s)                               : 6 channels\nChannel positions                        : Front: L C R, Side: L R, LFE\nSampling rate                            : 48.0 KHz\nStream size                              : 437 MiB (31%)\nTitle                                    : K@rtik &lt;a href=&quot;\nhttp://imageshack.us/a/img838/6238/37748926.png&quot; rel=&quot;nofollow&quot; target=&quot;_NEW&quot;&gt;\nhttp://imageshack.us/a/img838/6238/37748926.png&lt;/a&gt; &lt;a href=&quot;\nhttp://imageshack.us/a/img37/6213/38237459.png&quot; rel=&quot;nofollow&quot; target=&quot;_NEW&quot;&gt;\nhttp://imageshack.us/a/img37/6213/38237459.png&lt;/a&gt; &lt;a href=&quot;\nhttp://imageshack.us/a/img600/5814/38094830.png&quot; rel=&quot;nofollow&quot; target=&quot;_NEW&quot;&gt;\nhttp://imageshack.us/a/img600/5814/38094830.png&lt;/a&gt; &lt;a href=&quot;\nhttp://imageshack.us/a/img692/4142/16454592.png&quot; rel=&quot;nofollow&quot; target=&quot;_NEW&quot;&gt;\nhttp://imageshack.us/a/img692/4142/16454592.png&lt;/a&gt; &lt;a href=&quot;\nhttp://imageshack.us/a/img59/9320/90829118.png&quot; rel=&quot;nofollow&quot; target=&quot;_NEW&quot;&gt;\nhttp://imageshack.us/a/img59/9320/90829118.png&lt;/a&gt; &lt;a href=&quot;\nhttp://imageshack.us/a/img843/5946/88212011.png&quot; rel=&quot;nofollow&quot; target=&quot;_NEW&quot;&gt;\nhttp://imageshack.us/a/img843/5946/88212011.png&lt;/a&gt; &lt;a href=&quot;\nhttp://imageshack.us/a/img856/7321/92203423.png&quot; rel=&quot;nofollow&quot; target=&quot;_NEW&quot;&gt;\nhttp://imageshack.us/a/img856/7321/92203423.png&lt;/a&gt; &lt;a href=&quot;\nhttp://imageshack.us/a/img571/5715/47382602.png&quot; rel=&quot;nofollow&quot; target=&quot;_NEW&quot;&gt;\nhttp://imageshack.us/a/img571/5715/47382602.png&lt;/a&gt; &lt;a href=&quot;\nhttp://imageshack.us/a/img198/2580/38279450.png&quot; rel=&quot;nofollow&quot; target=&quot;_NEW&quot;&gt;\nhttp://imageshack.us/a/img198/2580/38279450.png&lt;/a&gt; &lt;a href=&quot;\nhttp://imageshack.us/a/img694/2895/86905879.png&quot; rel=&quot;nofollow&quot; target=&quot;_NEW&quot;&gt;\nhttp://imageshack.us/a/img694/2895/86905879.png&lt;/a&gt; &lt;a href=&quot;\nhttp://imageshack.us/a/img607/6944/67688450.png&quot; rel=&quot;nofollow&quot; target=&quot;_NEW&quot;&gt;\nhttp://imageshack.us/a/img607/6944/67688450.png&lt;/a&gt; &lt;a href=&quot;\nhttp://imageshack.us/a/img696/4378/92247444.png&quot; rel=&quot;nofollow&quot; target=&quot;_NEW&quot;&gt;\nhttp://imageshack.us/a/img696/4378/92247444.png&lt;/a&gt;\n\n","torrent":{"xt":"urn:btih:6b6c8e075bce4d4092a00fa419845d29eb47860f","amp;dn":"Kyaa+Super+Kool+Hain+Hum+%5B2012%5D--720p--DVDRip-By-K%40rtik+%5BEXD+Exc","amp;tr":["udp%3A%2F%2Ftracker.openbittorrent.com%3A80","udp%3A%2F%2Fopen.demonii.com%3A1337","udp%3A%2F%2Ftracker.coppersurfer.tk%3A6969","udp%3A%2F%2Fexodus.desync.com%3A6969"],"infoHash":"6b6c8e075bce4d4092a00fa419845d29eb47860f","infoHashBuffer":{"type":"Buffer","data":[107,108,142,7,91,206,77,64,146,160,15,164,25,132,93,41,235,71,134,15]},"announce":[],"urlList":[]}}